# Blender 3.1.0
# www.blender.org
mtllib gate.mtl
o Finish
v -2.327111 -0.098133 0.327111
v -2.327111 0.098133 0.327111
v -2.327111 -0.098133 -0.327111
v -2.327111 0.098133 -0.327111
v -1.672889 -0.098133 0.327111
v -1.672889 0.098133 0.327111
v -1.672889 -0.098133 -0.327111
v -1.672889 0.098133 -0.327111
v 1.672889 -0.098133 0.327111
v 1.672889 0.098133 0.327111
v 1.672889 -0.098133 -0.327111
v 1.672889 0.098133 -0.327111
v 2.327111 -0.098133 0.327111
v 2.327111 0.098133 0.327111
v 2.327111 -0.098133 -0.327111
v 2.327111 0.098133 -0.327111
v -2.097834 0.032016 0.100000
v -2.097834 5.012387 0.100000
v -2.097834 0.032016 -0.100000
v -2.097834 5.012387 -0.100000
v -1.897834 0.032016 0.100000
v -1.897834 5.012387 0.100000
v -1.897834 0.032016 -0.100000
v -1.897834 5.012387 -0.100000
v 1.898183 0.032016 0.100000
v 1.898183 5.012387 0.100000
v 1.898183 0.032016 -0.100000
v 1.898183 5.012387 -0.100000
v 2.098183 0.032016 0.100000
v 2.098183 5.012387 0.100000
v 2.098183 0.032016 -0.100000
v 2.098183 5.012387 -0.100000
v -2.097834 3.005786 0.100000
v -2.097834 4.665910 0.100000
v -2.097834 4.665910 -0.100000
v -2.097834 3.005786 -0.100000
v -1.897834 4.665910 -0.100000
v -1.897834 3.202676 -0.100000
v -1.897834 4.665910 0.100000
v -1.897834 3.202676 0.100000
v 1.920248 4.665910 -0.100000
v 1.920248 3.202676 -0.100000
v 1.920248 4.665910 0.100000
v 1.920248 3.202676 0.100000
vn -1.0000 -0.0000 -0.0000
vn -0.0000 -0.0000 -1.0000
vn 1.0000 -0.0000 -0.0000
vn -0.0000 -0.0000 1.0000
vn -0.0000 -1.0000 -0.0000
vn -0.0000 1.0000 -0.0000
vt 0.855469 0.789062
vt 0.855469 0.789062
vt 0.855469 0.789062
vt 0.855469 0.789062
vt 0.855469 0.789062
vt 0.855469 0.789062
vt 0.855469 0.789062
vt 0.855469 0.789062
vt 0.855469 0.789062
vt 0.855469 0.789062
vt 0.855469 0.789062
vt 0.855469 0.789062
vt 0.855469 0.789062
vt 0.855469 0.789062
vt 0.855469 0.789062
vt 0.855469 0.789062
vt 0.500000 0.625000
vt 0.497039 0.827284
vt 0.497039 0.827284
vt 0.500000 0.625000
vt 0.497039 0.827284
vt 0.497039 0.827284
vt 0.500000 0.625000
vt 0.497039 0.827284
vt 0.524275 0.784951
vt 0.497039 0.827284
vt 0.500000 0.625000
vt 0.497039 0.827284
vt 0.524275 0.784951
vt 0.497039 0.827284
vt 0.497039 0.827284
vt 0.125000 0.750000
vt 0.497039 0.827284
vt 0.497039 0.827284
vt 0.125000 0.500000
vt 0.497039 0.827284
vt 0.497039 0.827284
vt 0.375000 0.750000
vt 0.497039 0.827284
vt 0.497039 0.827284
vt 0.375000 0.500000
vt 0.497039 0.827284
vt 0.497039 0.827284
vt 0.497039 0.827284
vt 0.497039 0.827284
vt 0.497039 0.827284
vt 0.524275 0.784951
vt 0.497039 0.827284
vt 0.251461 0.622539
vt 0.497039 0.827284
vt 0.251461 0.622539
vt 0.458333 0.625000
vt 0.524275 0.784951
vt 0.497039 0.827284
vt 0.251461 0.622539
vt 0.001803 0.593953
vt 0.497039 0.827284
vt 0.005009 0.260507
vt 0.458333 0.625000
vt 0.541667 0.500000
vt 0.251461 0.622539
vt 0.458333 0.500000
vt 0.251461 0.622539
vt 0.458333 0.625000
vt 0.251461 0.622539
vt 0.541667 0.750000
vt 0.994172 0.592943
vt 0.458333 0.750000
vt 0.997326 0.259467
vt 0.458333 0.625000
s 0
usemtl Mat
f 1/1/1 2/2/1 4/4/1 3/3/1
f 3/3/2 4/4/2 8/8/2 7/7/2
f 7/7/3 8/8/3 6/6/3 5/5/3
f 5/5/4 6/6/4 2/2/4 1/1/4
f 3/3/5 7/7/5 5/5/5 1/1/5
f 8/8/6 4/4/6 2/2/6 6/6/6
f 9/9/1 10/10/1 12/12/1 11/11/1
f 11/11/2 12/12/2 16/16/2 15/15/2
f 15/15/3 16/16/3 14/14/3 13/13/3
f 13/13/4 14/14/4 10/10/4 9/9/4
f 11/11/5 15/15/5 13/13/5 9/9/5
f 16/16/6 12/12/6 10/10/6 14/14/6
f 34/44/1 18/19/1 20/22/1 35/45/1
f 35/45/2 20/22/2 24/30/2 37/48/2
f 37/47/3 24/29/3 22/25/3 39/53/3
f 39/54/4 22/26/4 18/19/4 34/44/4
f 19/20/5 23/27/5 21/23/5 17/17/5
f 24/30/6 20/22/6 18/19/6 22/26/6
f 25/31/1 26/33/1 28/36/1 27/34/1
f 27/34/2 28/36/2 32/42/2 31/40/2
f 31/40/3 32/42/3 30/39/3 29/37/3
f 29/37/4 30/39/4 26/33/4 25/31/4
f 27/35/5 31/41/5 29/38/5 25/32/5
f 32/42/6 28/36/6 26/33/6 30/39/6
f 21/24/4 40/57/4 33/43/4 17/18/4
f 40/57/4 39/54/4 34/44/4 33/43/4
f 23/28/3 38/50/3 40/57/3 21/24/3
f 37/49/6 39/55/6 43/65/6 41/61/6
f 19/21/2 36/46/2 38/50/2 23/28/2
f 36/46/2 35/45/2 37/48/2 38/50/2
f 17/18/1 33/43/1 36/46/1 19/21/1
f 33/43/1 34/44/1 35/45/1 36/46/1
f 42/62/3 41/60/3 43/66/3 44/68/3
f 39/56/4 40/58/4 44/69/4 43/67/4
f 38/51/2 37/49/2 41/61/2 42/63/2
f 40/59/5 38/52/5 42/64/5 44/70/5
